<svg xmlns="http://www.w3.org/2000/svg" xmlns:xlink="http://www.w3.org/1999/xlink" version="1.1" x="0px" y="0px" viewBox="-346 256 100 125" enable-background="new -346 256 100 100" xml:space="preserve"><g><path d="M-271.877,312.588c-2.858-0.009-5.181-2.328-5.194-5.192c0.014-2.867,2.335-5.189,5.194-5.195   c2.873,0.006,5.193,2.328,5.19,5.195C-266.681,310.26-269.004,312.579-271.877,312.588L-271.877,312.588z"/><path d="M-262.557,322.052c-2.857-0.009-5.181-2.327-5.194-5.193c0.014-2.867,2.335-5.188,5.194-5.194   c2.874,0.006,5.193,2.327,5.19,5.194C-257.36,319.725-259.683,322.043-262.557,322.052L-262.557,322.052z"/><polygon points="-254.021,337.177 -254.021,307.937 -246.202,307.937 -246.183,356 -254.021,356 -254.021,344.568    -324.312,344.568 -324.312,356 -332.194,356 -332.194,337.177  "/><path d="M-269.378,324.933l-9.656-14.304c-1.064-1.576-3.202-1.99-4.778-0.927c-1.574,1.063-1.99,3.203-0.927,4.778l7.057,10.452   h-3.344l-9.464-13.67l-36.271,9.889c-2.3,0.651-5.454,2.516-5.454,6.243v7.786l75.845,0.002v-10.25H-269.378z"/><polygon points="-329.328,264.126 -334.056,258.25 -346,258.25 -346,264.126 -345.955,264.126 -345.955,355.885 -340.079,355.885    -340.079,264.126  "/><polygon points="-246.056,258.25 -296.485,258.25 -296.485,264.126 -251.876,264.126 -251.876,302.962 -246,302.962  "/><polygon points="-304.575,279.051 -319.228,260.882 -318.093,259.966 -303.577,277.972 -304.575,279.051  "/><polygon points="-318.034,272.336 -316.943,271.37 -307.464,282.036 -308.488,283.167  "/><polygon points="-332.241,283.615 -336.084,280.214 -327.749,270.794 -323.906,274.194 -332.241,283.615  "/><polygon points="-326.522,289.212 -328.447,283.962 -323.627,282.195 -321.703,287.445 -326.522,289.212  "/><polygon points="-317.375,305.5 -322.269,303.956 -320.587,298.624 -315.693,300.168 -317.375,305.5  "/><polygon points="-328.561,306.813 -333.688,304.583 -331.641,299.877 -326.513,302.107 -328.561,306.813  "/><polygon points="-294.882,276.618 -307.91,261.623 -309.007,262.582 -296.562,276.824  "/><polygon points="-280.3,280.379 -287.688,275.694 -294.896,276.594 -289.351,282.931 -290.448,283.891 -296.555,276.806    -299.929,277.223 -302.175,279.872 -293.076,291.077 -294.207,291.995 -303.134,281.002 -305.663,283.983 -300.883,289.791    -302.009,290.717 -306.621,285.113 -308.121,286.882 -305.835,298.467 -292.021,304.996 -279.677,298.505 -277.285,287.935  "/></g><text x="-346" y="371" fill="#000000" font-size="5px" font-weight="bold" font-family="'Helvetica Neue', Helvetica, Arial-Unicode, Arial, Sans-serif">Created by Luis Prado</text><text x="-346" y="376" fill="#000000" font-size="5px" font-weight="bold" font-family="'Helvetica Neue', Helvetica, Arial-Unicode, Arial, Sans-serif">from the Noun Project</text></svg>